<?xml version="1.0" encoding="UTF-8"?>
<svg version="1.1" xmlns="http://www.w3.org/2000/svg" width="256" height="256">
<path d="M0 0 C0.89284698 -0.00902847 1.78569397 -0.01805695 2.70559692 -0.02735901 C4.58624984 -0.04176759 6.46695182 -0.05072463 8.34765625 -0.05444336 C11.1545621 -0.06623506 13.95918795 -0.11542474 16.765625 -0.16601562 C50.65781708 -0.4711275 80.33149583 14.66661031 104.3203125 37.93359375 C111.4282914 45.03480775 117.0832568 52.8199305 122.3203125 61.37109375 C122.69381836 61.97501953 123.06732422 62.57894531 123.45214844 63.20117188 C135.06801415 82.35421019 139.69503219 103.19363158 139.69091797 125.35693359 C139.69526972 127.97040081 139.73163072 130.58214479 139.76953125 133.1953125 C139.98557101 165.39626654 126.22087928 194.22325851 104.3203125 217.37109375 C103.56105469 218.19480469 102.80179688 219.01851562 102.01953125 219.8671875 C87.1740145 235.44161669 67.10891864 246.92548302 46.3203125 252.37109375 C45.62518555 252.56429199 44.93005859 252.75749023 44.21386719 252.95654297 C11.10494073 261.90194105 -24.64785368 256.36408624 -54.25 239.46875 C-63.59842311 233.8864659 -71.77247969 226.80664355 -79.6796875 219.37109375 C-80.56527344 218.5821875 -80.56527344 218.5821875 -81.46875 217.77734375 C-98.18655409 202.24800914 -109.40215049 179.29587938 -114.6796875 157.37109375 C-114.96682617 156.20090698 -114.96682617 156.20090698 -115.25976562 155.00708008 C-116.98579688 146.950476 -117.05195568 138.92492011 -117.05029297 130.72192383 C-117.0546364 128.33665871 -117.09098367 125.9532955 -117.12890625 123.56835938 C-117.3741258 90.04630734 -102.27713758 60.40196417 -79.6796875 36.37109375 C-79.15375 35.78070313 -78.6278125 35.1903125 -78.0859375 34.58203125 C-59.06924176 14.10997614 -27.8327478 0.18065282 0 0 Z M23.3203125 13.37109375 C24.51533472 17.12454992 25.88985805 20.62663183 27.5703125 24.18359375 C50.84590977 79.93517187 50.95807373 173.32744791 28.4140625 229.3125 C26.82307329 233.05267772 25.08121139 236.70861809 23.3203125 240.37109375 C22.9903125 241.36109375 22.6603125 242.35109375 22.3203125 243.37109375 C50.65074491 242.68467358 76.96287734 227.11907918 96.3203125 207.37109375 C116.42358617 186.17180229 126.78295975 157.35551691 127.5703125 128.37109375 C126.66375141 94.99831347 113.84761036 66.67011423 90.3203125 43.37109375 C89.57394531 42.6028125 88.82757813 41.83453125 88.05859375 41.04296875 C72.46119994 25.96650951 47.19003079 13.98215976 25.3046875 13.2734375 C24.64984375 13.30566406 23.995 13.33789062 23.3203125 13.37109375 Z M-76.21484375 52.125 C-97.83647037 77.60365779 -105.59886834 108.45714231 -103.6796875 141.37109375 C-101.40810687 163.25689943 -92.59709168 184.68218097 -78.30859375 201.453125 C-76.6796875 203.37109375 -76.6796875 203.37109375 -74.6796875 206.37109375 C-74.0196875 206.37109375 -73.3596875 206.37109375 -72.6796875 206.37109375 C-72.31423828 207.23347656 -72.31423828 207.23347656 -71.94140625 208.11328125 C-63.07927947 223.9718239 -37.57682544 235.03057699 -20.91699219 239.7487793 C-13.34572345 242.10420501 -13.34572345 242.10420501 -5.6796875 241.37109375 C-6.04320313 240.60410156 -6.40671875 239.83710938 -6.78125 239.046875 C-33.66632472 179.69290234 -33.5590948 87.15348589 -10.92236328 26.33642578 C-9.87004188 23.67606268 -8.74715303 21.05712647 -7.5625 18.453125 C-6.54956337 16.44111846 -6.54956337 16.44111846 -6.6796875 14.37109375 C-31.93131564 12.31393463 -60.29843133 34.83521455 -76.21484375 52.125 Z M6.3203125 38.37109375 C0.6380977 45.72927494 -0.25838239 54.39901303 -1.6796875 63.37109375 C-1.83356934 64.33901855 -1.98745117 65.30694336 -2.14599609 66.30419922 C-8.04820083 106.3307185 -14.60559299 173.63270551 5.3203125 210.37109375 C7.27538344 210.24725912 7.27538344 210.24725912 9.3203125 209.37109375 C21.98660127 186.93854192 18.70011736 149.91808231 18.6328125 125.37109375 C18.63118834 124.0143434 18.62968379 122.6575929 18.6282959 121.30084229 C18.59732102 101.87507534 18.37716717 82.59886967 15.3203125 63.37109375 C15.1651416 62.39156738 15.0099707 61.41204102 14.85009766 60.40283203 C12.96769375 48.65570059 12.96769375 48.65570059 7.3203125 38.37109375 C6.9903125 38.37109375 6.6603125 38.37109375 6.3203125 38.37109375 Z " fill="#FDE047" transform="translate(116.6796875,-0.37109375)"/>
</svg>
